<svg width="18" height="18" viewBox="0 0 18 18" fill="none" xmlns="http://www.w3.org/2000/svg">
<path fill-rule="evenodd" clip-rule="evenodd" d="M17.3335 9C17.3335 9.34518 17.0537 9.625 16.7085 9.625H7.40717L10.3964 12.6735C10.6381 12.92 10.6342 13.3157 10.3877 13.5574C10.1413 13.799 9.74557 13.7952 9.50391 13.5487L5.61526 9.58294C5.61526 9.58294 5.61526 9.58293 5.61525 9.58293C5.45551 9.42002 5.37748 9.20774 5.37748 9C5.37748 8.79224 5.45552 8.57997 5.61525 8.41707L5.61525 8.41707L9.50391 4.45131C9.74557 4.20485 10.1413 4.20096 10.3877 4.44263C10.6342 4.6843 10.6381 5.08001 10.3964 5.32647L7.40717 8.375H16.7085C17.0537 8.375 17.3335 8.65482 17.3335 9ZM8.1149 16.7083C8.1149 17.0535 7.83508 17.3333 7.4899 17.3333H4.31521C2.28875 17.3333 0.666828 15.6614 0.666828 13.625V4.37499C0.666828 2.33856 2.28875 0.666657 4.31521 0.666657L7.4899 0.666656C7.83508 0.666656 8.1149 0.946479 8.1149 1.29166C8.1149 1.63683 7.83508 1.91666 7.4899 1.91666L4.31521 1.91666C3.00213 1.91666 1.91683 3.00566 1.91683 4.37499V13.625C1.91683 14.9943 3.00213 16.0833 4.31521 16.0833H7.4899C7.83508 16.0833 8.1149 16.3631 8.1149 16.7083Z" fill="#9AA4B2"/>
</svg>
