<svg width="100" height="100" viewBox="0 0 100 100" fill="none" xmlns="http://www.w3.org/2000/svg">
<path fill-rule="evenodd" clip-rule="evenodd" d="M3.70279 50C3.70279 48.0823 5.25724 46.5278 7.17501 46.5278L58.8491 46.5278L42.2422 29.5916C40.8995 28.2222 40.9211 26.0239 42.2906 24.6811C43.6595 23.3389 45.858 23.36 47.2005 24.7294L68.8041 46.7614C69.6916 47.6665 70.1251 48.8459 70.1251 50C70.1251 51.1542 69.6916 52.3335 68.8042 53.2385L47.2005 75.2705C45.858 76.6397 43.6595 76.6613 42.2906 75.3187C40.9211 73.9761 40.8995 71.7777 42.2422 70.4085L58.8491 53.4722L7.17501 53.4722C5.25724 53.4722 3.70279 51.9176 3.70279 50ZM54.9172 7.17609C54.9172 5.25831 56.4718 3.70387 58.3895 3.70387H76.0266C87.2847 3.70387 96.2954 12.9922 96.2954 24.3055L96.2954 75.6945C96.2954 87.008 87.2847 96.2963 76.0266 96.2963L58.3895 96.2963C56.4718 96.2963 54.9172 94.7418 54.9172 92.8241C54.9172 90.9065 56.4718 89.3519 58.3895 89.3519H76.0266C83.3215 89.3519 89.351 83.3019 89.351 75.6945L89.351 24.3055C89.351 16.6983 83.3215 10.6483 76.0266 10.6483H58.3895C56.4718 10.6483 54.9172 9.09387 54.9172 7.17609Z" fill="#9AA4B2"/>
</svg>
