<svg width="50" height="32" viewBox="0 0 50 32" fill="none" xmlns="http://www.w3.org/2000/svg">
<path d="M42.5583 0C46.4807 0 49.66 3.18508 49.66 7.11183C49.66 11.0386 46.4807 14.2237 42.5583 14.2237C40.3806 14.2237 38.3516 14.8767 36.6672 16.0011C35.4846 16.7882 34.468 17.8066 33.6818 18.9916C32.3872 20.9441 32.006 22.8534 31.9263 24.2525C31.9457 24.4622 31.9543 24.6741 31.9543 24.8882C31.9543 28.8171 28.775 32 24.8526 32C24.844 32 24.8375 32 24.8289 32C24.8203 32 24.8138 32 24.8052 32C20.8828 32 17.7036 28.8149 17.7036 24.8882C17.7036 24.6741 17.7143 24.4644 17.7316 24.2546C17.6519 22.8534 17.2728 20.9441 15.9761 18.9894C15.1899 17.8044 14.1732 16.786 12.9906 15.9989C11.3062 14.8767 9.27719 14.2215 7.09951 14.2215C3.17927 14.2237 0 11.0386 0 7.11183C0 3.18508 3.17927 0 7.10167 0C11.0241 0 14.2033 3.18508 14.2033 7.11183C14.2033 9.29144 14.856 11.3197 15.9782 13.0106C16.7644 14.1956 17.7811 15.214 18.9636 16.0011C20.6459 17.1212 22.6642 17.772 24.8311 17.7785C26.998 17.7742 29.0141 17.1212 30.6963 16.0011C31.8789 15.214 32.8977 14.1956 33.6818 13.0106C34.804 11.3197 35.4566 9.29144 35.4566 7.11183C35.4566 3.18292 38.6359 0 42.5583 0ZM24.8483 0.00432462C28.7664 0.00432462 31.95 3.19373 31.95 7.11616C31.95 11.0386 28.7664 14.228 24.8483 14.228C20.9302 14.228 17.7466 11.0386 17.7466 7.11616C17.7466 3.19373 20.9302 0.00432462 24.8483 0.00432462Z" fill="#16B364"/>
</svg>
